# xmcd CD database file
#
# Track frame offsets:
#	150
#	16703
#	39471
#	54656
#	106787
#	119191
#	137393
#	158661
#	174000
#	190969
#	205382
#	241418
#
# Disc length: 3736 seconds
#
# Revision: 0
# Processed by: cddbd v1.5.1PL0 Copyright (c) Steve Scherf et al.
# Submitted via: CDex 1.51
#
DISCID=970e960c
DTITLE=SPDILL - how to feel the empty hours?
DYEAR=2004
DGENRE=Electronica
TTITLE0=Empty hours
TTITLE1=現花(lublab mix)
TTITLE2=日向月(二階堂和美 version)
TTITLE3=Sleeping Beauty pt.1
TTITLE4=チャームポイント(dub)
TTITLE5=使人、泥に撒かれる
TTITLE6=往往ワイド
TTITLE7=papillon
TTITLE8=日向月(ZUINOSIN version)
TTITLE9=Free style(DJ BIG MIX)
TTITLE10=白い札
TTITLE11=：：：：データ：：：：
EXTD=YEAR: 2004
EXTT0=
EXTT1=
EXTT2=
EXTT3=
EXTT4=
EXTT5=
EXTT6=
EXTT7=
EXTT8=
EXTT9=
EXTT10=
EXTT11=
PLAYORDER=
